<mxfile host="app.diagrams.net" modified="2024-07-03T16:35:02.343Z" agent="Mozilla/5.0 (Macintosh; Intel Mac OS X 10_15_7) AppleWebKit/605.1.15 (KHTML, like Gecko) Version/17.5 Safari/605.1.15" etag="8OTF4ptd4Gu_jyXSMCWW" version="24.6.4" type="device">
  <diagram name="Pagina-1" id="2x3mvN7VbTfRQ0QRLT9B">
    <mxGraphModel dx="1853" dy="1838" grid="1" gridSize="10" guides="1" tooltips="1" connect="1" arrows="1" fold="1" page="1" pageScale="1" pageWidth="827" pageHeight="1169" math="0" shadow="0">
      <root>
        <mxCell id="0" />
        <mxCell id="1" parent="0" />
        <mxCell id="kyYHTft40qCIeeSrdu0G-58" value="" style="rounded=1;whiteSpace=wrap;html=1;" parent="1" vertex="1">
          <mxGeometry x="409.12" y="515" width="199.75" height="60" as="geometry" />
        </mxCell>
        <mxCell id="kyYHTft40qCIeeSrdu0G-53" value="" style="rounded=1;whiteSpace=wrap;html=1;" parent="1" vertex="1">
          <mxGeometry x="37.370000000000005" y="685" width="648.75" height="60" as="geometry" />
        </mxCell>
        <mxCell id="kyYHTft40qCIeeSrdu0G-52" value="" style="rounded=1;whiteSpace=wrap;html=1;" parent="1" vertex="1">
          <mxGeometry x="337.13" y="430" width="91.5" height="60" as="geometry" />
        </mxCell>
        <mxCell id="kyYHTft40qCIeeSrdu0G-51" value="" style="rounded=1;whiteSpace=wrap;html=1;" parent="1" vertex="1">
          <mxGeometry x="37.37" y="595" width="571.5" height="60" as="geometry" />
        </mxCell>
        <mxCell id="kyYHTft40qCIeeSrdu0G-50" value="" style="rounded=1;whiteSpace=wrap;html=1;" parent="1" vertex="1">
          <mxGeometry x="38.88" y="430" width="259" height="60" as="geometry" />
        </mxCell>
        <mxCell id="kyYHTft40qCIeeSrdu0G-49" value="" style="rounded=1;whiteSpace=wrap;html=1;" parent="1" vertex="1">
          <mxGeometry x="212.88" y="340" width="177.12" height="60" as="geometry" />
        </mxCell>
        <mxCell id="kyYHTft40qCIeeSrdu0G-48" value="" style="rounded=1;whiteSpace=wrap;html=1;" parent="1" vertex="1">
          <mxGeometry x="241.63" y="520" width="99.75" height="60" as="geometry" />
        </mxCell>
        <mxCell id="kyYHTft40qCIeeSrdu0G-47" value="" style="rounded=1;whiteSpace=wrap;html=1;" parent="1" vertex="1">
          <mxGeometry x="474.25" y="340" width="90.25" height="60" as="geometry" />
        </mxCell>
        <mxCell id="kyYHTft40qCIeeSrdu0G-45" value="" style="rounded=1;whiteSpace=wrap;html=1;" parent="1" vertex="1">
          <mxGeometry x="38.88" y="240" width="209.75" height="60" as="geometry" />
        </mxCell>
        <mxCell id="kyYHTft40qCIeeSrdu0G-44" value="" style="rounded=1;whiteSpace=wrap;html=1;fillColor=#FFFFFF;strokeColor=#000000;" parent="1" vertex="1">
          <mxGeometry x="38.88" y="140" width="704.25" height="60" as="geometry" />
        </mxCell>
        <mxCell id="kyYHTft40qCIeeSrdu0G-43" value="" style="rounded=1;whiteSpace=wrap;html=1;" parent="1" vertex="1">
          <mxGeometry x="459" y="40" width="391.5" height="60" as="geometry" />
        </mxCell>
        <mxCell id="kyYHTft40qCIeeSrdu0G-42" value="" style="rounded=1;whiteSpace=wrap;html=1;" parent="1" vertex="1">
          <mxGeometry x="38.879999999999995" y="40" width="391.5" height="60" as="geometry" />
        </mxCell>
        <mxCell id="kyYHTft40qCIeeSrdu0G-41" value="" style="rounded=1;whiteSpace=wrap;html=1;" parent="1" vertex="1">
          <mxGeometry x="196.5" y="-60" width="76.25" height="60" as="geometry" />
        </mxCell>
        <mxCell id="kyYHTft40qCIeeSrdu0G-40" value="" style="rounded=1;whiteSpace=wrap;html=1;" parent="1" vertex="1">
          <mxGeometry x="37.75" y="-60" width="114.25" height="60" as="geometry" />
        </mxCell>
        <mxCell id="kyYHTft40qCIeeSrdu0G-39" value="" style="rounded=1;whiteSpace=wrap;html=1;" parent="1" vertex="1">
          <mxGeometry x="37.75" y="-160" width="414" height="60" as="geometry" />
        </mxCell>
        <mxCell id="kyYHTft40qCIeeSrdu0G-4" value="UTENTE" style="text;html=1;align=center;verticalAlign=middle;whiteSpace=wrap;rounded=0;" parent="1" vertex="1">
          <mxGeometry x="44" y="-160" width="60" height="30" as="geometry" />
        </mxCell>
        <mxCell id="kyYHTft40qCIeeSrdu0G-5" value="&lt;u&gt;email&lt;/u&gt;, nome, password, telefono, via, civico, comune, borsellino, premium" style="text;html=1;align=left;verticalAlign=middle;whiteSpace=wrap;rounded=0;" parent="1" vertex="1">
          <mxGeometry x="45" y="-130" width="409" height="30" as="geometry" />
        </mxCell>
        <mxCell id="kyYHTft40qCIeeSrdu0G-6" value="&lt;u&gt;tipo&lt;/u&gt;, email_utente" style="text;html=1;align=left;verticalAlign=middle;whiteSpace=wrap;rounded=0;" parent="1" vertex="1">
          <mxGeometry x="44" y="-30" width="98" height="30" as="geometry" />
        </mxCell>
        <mxCell id="kyYHTft40qCIeeSrdu0G-7" value="PAGAMENTO" style="text;html=1;align=center;verticalAlign=middle;whiteSpace=wrap;rounded=0;" parent="1" vertex="1">
          <mxGeometry x="43" y="-60" width="79" height="30" as="geometry" />
        </mxCell>
        <mxCell id="kyYHTft40qCIeeSrdu0G-9" value="SCONTO" style="text;html=1;align=center;verticalAlign=middle;whiteSpace=wrap;rounded=0;" parent="1" vertex="1">
          <mxGeometry x="202.75" y="-60" width="60" height="30" as="geometry" />
        </mxCell>
        <mxCell id="kyYHTft40qCIeeSrdu0G-10" value="&lt;u&gt;codice&lt;/u&gt;" style="text;html=1;align=left;verticalAlign=middle;whiteSpace=wrap;rounded=0;" parent="1" vertex="1">
          <mxGeometry x="203.75" y="-30" width="49" height="30" as="geometry" />
        </mxCell>
        <mxCell id="kyYHTft40qCIeeSrdu0G-11" value="RECENSIONE_ RISTORANTE" style="text;html=1;align=center;verticalAlign=middle;whiteSpace=wrap;rounded=0;" parent="1" vertex="1">
          <mxGeometry x="45.129999999999995" y="40" width="169" height="30" as="geometry" />
        </mxCell>
        <mxCell id="kyYHTft40qCIeeSrdu0G-12" value="&lt;u&gt;istante_recensione&lt;/u&gt;, &lt;u&gt;email_utente&lt;/u&gt;, &lt;u&gt;nome_ristorante&lt;/u&gt;, voto, commento" style="text;html=1;align=left;verticalAlign=middle;whiteSpace=wrap;rounded=0;" parent="1" vertex="1">
          <mxGeometry x="52.379999999999995" y="70" width="368" height="30" as="geometry" />
        </mxCell>
        <mxCell id="kyYHTft40qCIeeSrdu0G-13" value="&lt;u&gt;istante_recensione&lt;/u&gt;,&lt;u&gt;email_utente&lt;/u&gt;,&amp;nbsp;&lt;u&gt;codice_rider&lt;/u&gt;, &amp;nbsp;voto, commento" style="text;html=1;align=left;verticalAlign=middle;whiteSpace=wrap;rounded=0;" parent="1" vertex="1">
          <mxGeometry x="470.75" y="70" width="357.5" height="30" as="geometry" />
        </mxCell>
        <mxCell id="kyYHTft40qCIeeSrdu0G-14" value="RECENSIONE_ RIDER" style="text;html=1;align=center;verticalAlign=middle;whiteSpace=wrap;rounded=0;" parent="1" vertex="1">
          <mxGeometry x="469.75" y="40" width="138.5" height="30" as="geometry" />
        </mxCell>
        <mxCell id="kyYHTft40qCIeeSrdu0G-16" value="&lt;u&gt;id_ordine&lt;/u&gt;, email_utente, nome_ristorantre, codice_rider, &amp;nbsp;data_creazione, ora_consegna, ora_ritiro, consegnato, ritirato, annullato" style="text;html=1;align=left;verticalAlign=middle;whiteSpace=wrap;rounded=0;" parent="1" vertex="1">
          <mxGeometry x="44.13" y="170" width="699" height="30" as="geometry" />
        </mxCell>
        <mxCell id="kyYHTft40qCIeeSrdu0G-17" value="ORDINE" style="text;html=1;align=center;verticalAlign=middle;whiteSpace=wrap;rounded=0;" parent="1" vertex="1">
          <mxGeometry x="43.13" y="140" width="60" height="30" as="geometry" />
        </mxCell>
        <mxCell id="kyYHTft40qCIeeSrdu0G-18" value="&lt;u&gt;id_chat&lt;/u&gt;, id_ordine, email_utente, tipo" style="text;html=1;align=left;verticalAlign=middle;whiteSpace=wrap;rounded=0;" parent="1" vertex="1">
          <mxGeometry x="44.13" y="270" width="209" height="30" as="geometry" />
        </mxCell>
        <mxCell id="kyYHTft40qCIeeSrdu0G-19" value="CHAT" style="text;html=1;align=center;verticalAlign=middle;whiteSpace=wrap;rounded=0;" parent="1" vertex="1">
          <mxGeometry x="43.13" y="240" width="40" height="30" as="geometry" />
        </mxCell>
        <mxCell id="kyYHTft40qCIeeSrdu0G-22" value="&lt;u&gt;titolo&lt;/u&gt;, id&lt;u&gt;_lista&lt;/u&gt;, immagine, prezzo, sconto" style="text;html=1;align=left;verticalAlign=middle;whiteSpace=wrap;rounded=0;" parent="1" vertex="1">
          <mxGeometry x="45.13" y="460" width="238" height="30" as="geometry" />
        </mxCell>
        <mxCell id="kyYHTft40qCIeeSrdu0G-23" value="PIATTO" style="text;html=1;align=center;verticalAlign=middle;whiteSpace=wrap;rounded=0;" parent="1" vertex="1">
          <mxGeometry x="44.13" y="430" width="49" height="30" as="geometry" />
        </mxCell>
        <mxCell id="kyYHTft40qCIeeSrdu0G-24" value="&lt;u&gt;nome&lt;/u&gt;" style="text;html=1;align=left;verticalAlign=middle;whiteSpace=wrap;rounded=0;" parent="1" vertex="1">
          <mxGeometry x="247.5" y="550" width="39" height="30" as="geometry" />
        </mxCell>
        <mxCell id="kyYHTft40qCIeeSrdu0G-25" value="INGREDIENTE" style="text;html=1;align=center;verticalAlign=middle;whiteSpace=wrap;rounded=0;" parent="1" vertex="1">
          <mxGeometry x="246.5" y="520" width="90" height="30" as="geometry" />
        </mxCell>
        <mxCell id="kyYHTft40qCIeeSrdu0G-26" value="&lt;u&gt;nome&lt;/u&gt;" style="text;html=1;align=left;verticalAlign=middle;whiteSpace=wrap;rounded=0;" parent="1" vertex="1">
          <mxGeometry x="479" y="370" width="33.75" height="30" as="geometry" />
        </mxCell>
        <mxCell id="kyYHTft40qCIeeSrdu0G-27" value="ALLERGENE&lt;span style=&quot;caret-color: rgba(0, 0, 0, 0); color: rgba(0, 0, 0, 0); font-family: monospace; font-size: 0px; text-align: start; white-space: nowrap;&quot;&gt;%3CmxGraphModel%3E%3Croot%3E%3CmxCell%20id%3D%220%22%2F%3E%3CmxCell%20id%3D%221%22%20parent%3D%220%22%2F%3E%3CmxCell%20id%3D%222%22%20value%3D%22%26lt%3Bu%26gt%3Bnome%26lt%3B%2Fu%26gt%3B%22%20style%3D%22text%3Bhtml%3D1%3Balign%3Dleft%3BverticalAlign%3Dmiddle%3BwhiteSpace%3Dwrap%3Brounded%3D0%3B%22%20vertex%3D%221%22%20parent%3D%221%22%3E%3CmxGeometry%20x%3D%2281%22%20y%3D%22675%22%20width%3D%22469%22%20height%3D%2230%22%20as%3D%22geometry%22%2F%3E%3C%2FmxCell%3E%3CmxCell%20id%3D%223%22%20value%3D%22INGREDIENTE%22%20style%3D%22text%3Bhtml%3D1%3Balign%3Dcenter%3BverticalAlign%3Dmiddle%3BwhiteSpace%3Dwrap%3Brounded%3D0%3B%22%20vertex%3D%221%22%20parent%3D%221%22%3E%3CmxGeometry%20x%3D%2280%22%20y%3D%22645%22%20width%3D%2290%22%20height%3D%2230%22%20as%3D%22geometry%22%2F%3E%3C%2FmxCell%3E%3C%2Froot%3E%3C%2FmxGraphModel%3E&lt;/span&gt;" style="text;html=1;align=center;verticalAlign=middle;whiteSpace=wrap;rounded=0;" parent="1" vertex="1">
          <mxGeometry x="474.25" y="340" width="84.75" height="30" as="geometry" />
        </mxCell>
        <mxCell id="kyYHTft40qCIeeSrdu0G-28" value="&lt;u&gt;id_lista&lt;/u&gt;,nome, nome_ristorante&lt;span style=&quot;caret-color: rgba(0, 0, 0, 0); color: rgba(0, 0, 0, 0); font-family: monospace; font-size: 0px; white-space: nowrap;&quot;&gt;%3CmxGraphModel%3E%3Croot%3E%3CmxCell%20id%3D%220%22%2F%3E%3CmxCell%20id%3D%221%22%20parent%3D%220%22%2F%3E%3CmxCell%20id%3D%222%22%20value%3D%22%26lt%3Bu%26gt%3Bnome%26lt%3B%2Fu%26gt%3B%22%20style%3D%22text%3Bhtml%3D1%3Balign%3Dleft%3BverticalAlign%3Dmiddle%3BwhiteSpace%3Dwrap%3Brounded%3D0%3B%22%20vertex%3D%221%22%20parent%3D%221%22%3E%3CmxGeometry%20x%3D%2281%22%20y%3D%22675%22%20width%3D%22469%22%20height%3D%2230%22%20as%3D%22geometry%22%2F%3E%3C%2FmxCell%3E%3CmxCell%20id%3D%223%22%20value%3D%22INGREDIENTE%22%20style%3D%22text%3Bhtml%3D1%3Balign%3Dcenter%3BverticalAlign%3Dmiddle%3BwhiteSpace%3Dwrap%3Brounded%3D0%3B%22%20vertex%3D%221%22%20parent%3D%221%22%3E%3CmxGeometry%20x%3D%2280%22%20y%3D%22645%22%20width%3D%2290%22%20height%3D%2230%22%20as%3D%22geometry%22%2F%3E%3C%2FmxCell%3E%3C%2Froot%3E%3C%2FmxGraphModel%3E&lt;/span&gt;" style="text;html=1;align=left;verticalAlign=middle;whiteSpace=wrap;rounded=0;" parent="1" vertex="1">
          <mxGeometry x="217.88" y="370" width="172.12" height="30" as="geometry" />
        </mxCell>
        <mxCell id="kyYHTft40qCIeeSrdu0G-29" value="LISTA" style="text;html=1;align=center;verticalAlign=middle;whiteSpace=wrap;rounded=0;" parent="1" vertex="1">
          <mxGeometry x="216.88" y="340" width="50" height="30" as="geometry" />
        </mxCell>
        <mxCell id="kyYHTft40qCIeeSrdu0G-30" value="&lt;u&gt;nome,&lt;/u&gt;&amp;nbsp;descrizione, stelle, costo_spedizione, img_profilo, TopPartner, data_TopPartner, via, civico, comune" style="text;html=1;align=left;verticalAlign=middle;whiteSpace=wrap;rounded=0;" parent="1" vertex="1">
          <mxGeometry x="40.12" y="625" width="578" height="30" as="geometry" />
        </mxCell>
        <mxCell id="kyYHTft40qCIeeSrdu0G-31" value="RISTORANTE" style="text;html=1;align=center;verticalAlign=middle;whiteSpace=wrap;rounded=0;" parent="1" vertex="1">
          <mxGeometry x="39.12" y="595" width="90" height="30" as="geometry" />
        </mxCell>
        <mxCell id="kyYHTft40qCIeeSrdu0G-34" value="&lt;u&gt;nome&lt;/u&gt;" style="text;html=1;align=left;verticalAlign=middle;whiteSpace=wrap;rounded=0;" parent="1" vertex="1">
          <mxGeometry x="342.38" y="460" width="39" height="30" as="geometry" />
        </mxCell>
        <mxCell id="kyYHTft40qCIeeSrdu0G-35" value="CATEGORIA" style="text;html=1;align=center;verticalAlign=middle;whiteSpace=wrap;rounded=0;" parent="1" vertex="1">
          <mxGeometry x="341.38" y="430" width="80" height="30" as="geometry" />
        </mxCell>
        <mxCell id="kyYHTft40qCIeeSrdu0G-36" value="&lt;u&gt;codice&lt;/u&gt;, posizione, numero_consegne, occupato, disponibile, fuori_servizio, bici, bici_elettrica, monopattino, km_batteria" style="text;html=1;align=left;verticalAlign=middle;whiteSpace=wrap;rounded=0;" parent="1" vertex="1">
          <mxGeometry x="44.620000000000005" y="710" width="639" height="30" as="geometry" />
        </mxCell>
        <mxCell id="kyYHTft40qCIeeSrdu0G-37" value="RIDER" style="text;html=1;align=center;verticalAlign=middle;whiteSpace=wrap;rounded=0;" parent="1" vertex="1">
          <mxGeometry x="42.620000000000005" y="685" width="50" height="30" as="geometry" />
        </mxCell>
        <mxCell id="kyYHTft40qCIeeSrdu0G-56" value="nome_categoria, nome_ristorante" style="text;html=1;align=left;verticalAlign=middle;whiteSpace=wrap;rounded=0;" parent="1" vertex="1">
          <mxGeometry x="413.62" y="545" width="192.5" height="30" as="geometry" />
        </mxCell>
        <mxCell id="kyYHTft40qCIeeSrdu0G-57" value="APPARTIENE" style="text;html=1;align=center;verticalAlign=middle;whiteSpace=wrap;rounded=0;" parent="1" vertex="1">
          <mxGeometry x="411.62" y="520" width="84.5" height="30" as="geometry" />
        </mxCell>
        <mxCell id="kyYHTft40qCIeeSrdu0G-62" value="" style="rounded=1;whiteSpace=wrap;html=1;" parent="1" vertex="1">
          <mxGeometry x="40.510000000000005" y="520" width="178.25" height="60" as="geometry" />
        </mxCell>
        <mxCell id="kyYHTft40qCIeeSrdu0G-63" value="nome_ingrediente, titolo_piatto" style="text;html=1;align=left;verticalAlign=middle;whiteSpace=wrap;rounded=0;" parent="1" vertex="1">
          <mxGeometry x="45.010000000000005" y="550" width="173.75" height="30" as="geometry" />
        </mxCell>
        <mxCell id="kyYHTft40qCIeeSrdu0G-64" value="COMPOSTO" style="text;html=1;align=center;verticalAlign=middle;whiteSpace=wrap;rounded=0;" parent="1" vertex="1">
          <mxGeometry x="43.010000000000005" y="525" width="75.75" height="30" as="geometry" />
        </mxCell>
        <mxCell id="kyYHTft40qCIeeSrdu0G-65" value="" style="rounded=1;whiteSpace=wrap;html=1;" parent="1" vertex="1">
          <mxGeometry x="469.75" y="430" width="178.25" height="60" as="geometry" />
        </mxCell>
        <mxCell id="kyYHTft40qCIeeSrdu0G-66" value="nome_allergene, titolo_piatto" style="text;html=1;align=left;verticalAlign=middle;whiteSpace=wrap;rounded=0;" parent="1" vertex="1">
          <mxGeometry x="474.25" y="460" width="173.75" height="30" as="geometry" />
        </mxCell>
        <mxCell id="kyYHTft40qCIeeSrdu0G-67" value="INCLUDE" style="text;html=1;align=center;verticalAlign=middle;whiteSpace=wrap;rounded=0;" parent="1" vertex="1">
          <mxGeometry x="472.25" y="435" width="62" height="30" as="geometry" />
        </mxCell>
        <mxCell id="kyYHTft40qCIeeSrdu0G-68" value="" style="rounded=1;whiteSpace=wrap;html=1;" parent="1" vertex="1">
          <mxGeometry x="38.879999999999995" y="340" width="139" height="60" as="geometry" />
        </mxCell>
        <mxCell id="kyYHTft40qCIeeSrdu0G-69" value="titolo_piatto, id_ordine" style="text;html=1;align=left;verticalAlign=middle;whiteSpace=wrap;rounded=0;" parent="1" vertex="1">
          <mxGeometry x="43.879999999999995" y="370" width="129" height="30" as="geometry" />
        </mxCell>
        <mxCell id="kyYHTft40qCIeeSrdu0G-70" value="CONTIENE" style="text;html=1;align=center;verticalAlign=middle;whiteSpace=wrap;rounded=0;" parent="1" vertex="1">
          <mxGeometry x="42.879999999999995" y="340" width="66" height="30" as="geometry" />
        </mxCell>
        <mxCell id="kyYHTft40qCIeeSrdu0G-71" value="" style="rounded=1;whiteSpace=wrap;html=1;" parent="1" vertex="1">
          <mxGeometry x="314.75" y="-60" width="170" height="60" as="geometry" />
        </mxCell>
        <mxCell id="kyYHTft40qCIeeSrdu0G-72" value="email_utente, codice_sconto" style="text;html=1;align=left;verticalAlign=middle;whiteSpace=wrap;rounded=0;" parent="1" vertex="1">
          <mxGeometry x="319.75" y="-30" width="165" height="30" as="geometry" />
        </mxCell>
        <mxCell id="kyYHTft40qCIeeSrdu0G-73" value="COLLEZIONA" style="text;html=1;align=center;verticalAlign=middle;whiteSpace=wrap;rounded=0;" parent="1" vertex="1">
          <mxGeometry x="311.75" y="-60" width="86" height="30" as="geometry" />
        </mxCell>
        <mxCell id="kyYHTft40qCIeeSrdu0G-79" style="edgeStyle=orthogonalEdgeStyle;rounded=0;orthogonalLoop=1;jettySize=auto;html=1;exitX=1;exitY=0;exitDx=0;exitDy=0;entryX=0;entryY=0.75;entryDx=0;entryDy=0;strokeColor=#B266FF;strokeWidth=2;" parent="1" source="kyYHTft40qCIeeSrdu0G-78" target="kyYHTft40qCIeeSrdu0G-39" edge="1">
          <mxGeometry relative="1" as="geometry">
            <Array as="points">
              <mxPoint x="230" y="20" />
              <mxPoint x="18" y="20" />
              <mxPoint x="18" y="-115" />
            </Array>
          </mxGeometry>
        </mxCell>
        <mxCell id="kyYHTft40qCIeeSrdu0G-78" value="" style="rounded=1;whiteSpace=wrap;html=1;fillColor=none;strokeWidth=2;strokeColor=#B266FF;" parent="1" vertex="1">
          <mxGeometry x="160" y="75" width="70" height="20" as="geometry" />
        </mxCell>
        <mxCell id="kyYHTft40qCIeeSrdu0G-81" style="edgeStyle=orthogonalEdgeStyle;rounded=0;orthogonalLoop=1;jettySize=auto;html=1;exitX=1;exitY=0;exitDx=0;exitDy=0;entryX=0;entryY=1;entryDx=0;entryDy=0;strokeWidth=2;strokeColor=#B266FF;" parent="1" source="kyYHTft40qCIeeSrdu0G-80" target="kyYHTft40qCIeeSrdu0G-5" edge="1">
          <mxGeometry relative="1" as="geometry">
            <Array as="points">
              <mxPoint x="140" y="-80" />
              <mxPoint x="45" y="-80" />
            </Array>
          </mxGeometry>
        </mxCell>
        <mxCell id="kyYHTft40qCIeeSrdu0G-80" value="" style="rounded=1;whiteSpace=wrap;html=1;fillColor=none;strokeWidth=2;strokeColor=#B266FF;" parent="1" vertex="1">
          <mxGeometry x="70" y="-25" width="70" height="20" as="geometry" />
        </mxCell>
        <mxCell id="kyYHTft40qCIeeSrdu0G-83" style="edgeStyle=orthogonalEdgeStyle;rounded=0;orthogonalLoop=1;jettySize=auto;html=1;exitX=0.75;exitY=0;exitDx=0;exitDy=0;entryX=1;entryY=0.25;entryDx=0;entryDy=0;strokeWidth=2;strokeColor=#B266FF;" parent="1" source="kyYHTft40qCIeeSrdu0G-82" target="kyYHTft40qCIeeSrdu0G-5" edge="1">
          <mxGeometry relative="1" as="geometry" />
        </mxCell>
        <mxCell id="kyYHTft40qCIeeSrdu0G-82" value="" style="rounded=1;whiteSpace=wrap;html=1;fillColor=none;strokeWidth=2;strokeColor=#B266FF;" parent="1" vertex="1">
          <mxGeometry x="578" y="75" width="70" height="20" as="geometry" />
        </mxCell>
        <mxCell id="kyYHTft40qCIeeSrdu0G-85" style="edgeStyle=orthogonalEdgeStyle;rounded=0;orthogonalLoop=1;jettySize=auto;html=1;exitX=0.25;exitY=1;exitDx=0;exitDy=0;strokeWidth=2;strokeColor=#B266FF;entryX=0;entryY=0.25;entryDx=0;entryDy=0;" parent="1" source="kyYHTft40qCIeeSrdu0G-84" target="kyYHTft40qCIeeSrdu0G-31" edge="1">
          <mxGeometry relative="1" as="geometry">
            <mxPoint x="10" y="600" as="targetPoint" />
            <Array as="points">
              <mxPoint x="259" y="110" />
              <mxPoint x="-10" y="110" />
              <mxPoint x="-10" y="603" />
              <mxPoint x="20" y="603" />
            </Array>
          </mxGeometry>
        </mxCell>
        <mxCell id="kyYHTft40qCIeeSrdu0G-84" value="" style="rounded=1;whiteSpace=wrap;html=1;fillColor=none;strokeWidth=2;strokeColor=#B266FF;" parent="1" vertex="1">
          <mxGeometry x="234.75" y="75" width="95.25" height="20" as="geometry" />
        </mxCell>
        <mxCell id="kyYHTft40qCIeeSrdu0G-87" style="edgeStyle=orthogonalEdgeStyle;rounded=0;orthogonalLoop=1;jettySize=auto;html=1;exitX=0;exitY=0;exitDx=0;exitDy=0;entryX=0;entryY=0.25;entryDx=0;entryDy=0;strokeWidth=2;strokeColor=#B266FF;" parent="1" source="kyYHTft40qCIeeSrdu0G-86" target="kyYHTft40qCIeeSrdu0G-39" edge="1">
          <mxGeometry relative="1" as="geometry">
            <Array as="points">
              <mxPoint x="-10" y="175" />
              <mxPoint x="-10" y="-145" />
            </Array>
          </mxGeometry>
        </mxCell>
        <mxCell id="kyYHTft40qCIeeSrdu0G-86" value="" style="rounded=1;whiteSpace=wrap;html=1;fillColor=none;strokeWidth=2;strokeColor=#B266FF;" parent="1" vertex="1">
          <mxGeometry x="103.13" y="175" width="70" height="20" as="geometry" />
        </mxCell>
        <mxCell id="kyYHTft40qCIeeSrdu0G-89" style="edgeStyle=orthogonalEdgeStyle;rounded=0;orthogonalLoop=1;jettySize=auto;html=1;exitX=0.25;exitY=1;exitDx=0;exitDy=0;strokeWidth=2;strokeColor=#B266FF;entryX=0;entryY=1;entryDx=0;entryDy=0;" parent="1" source="kyYHTft40qCIeeSrdu0G-88" target="kyYHTft40qCIeeSrdu0G-31" edge="1">
          <mxGeometry relative="1" as="geometry">
            <mxPoint x="10" y="670" as="targetPoint" />
            <Array as="points">
              <mxPoint x="201" y="220" />
              <mxPoint x="-20" y="220" />
              <mxPoint x="-20" y="625" />
            </Array>
          </mxGeometry>
        </mxCell>
        <mxCell id="kyYHTft40qCIeeSrdu0G-88" value="" style="rounded=1;whiteSpace=wrap;html=1;fillColor=none;strokeWidth=2;strokeColor=#B266FF;" parent="1" vertex="1">
          <mxGeometry x="178.63" y="175" width="91.37" height="20" as="geometry" />
        </mxCell>
        <mxCell id="kyYHTft40qCIeeSrdu0G-91" style="edgeStyle=orthogonalEdgeStyle;rounded=0;orthogonalLoop=1;jettySize=auto;html=1;exitX=0.75;exitY=1;exitDx=0;exitDy=0;entryX=1;entryY=0.25;entryDx=0;entryDy=0;strokeWidth=2;strokeColor=#B266FF;" parent="1" source="kyYHTft40qCIeeSrdu0G-90" target="kyYHTft40qCIeeSrdu0G-53" edge="1">
          <mxGeometry relative="1" as="geometry">
            <Array as="points">
              <mxPoint x="325" y="210" />
              <mxPoint x="710" y="210" />
              <mxPoint x="710" y="700" />
            </Array>
          </mxGeometry>
        </mxCell>
        <mxCell id="kyYHTft40qCIeeSrdu0G-90" value="" style="rounded=1;whiteSpace=wrap;html=1;fillColor=none;strokeWidth=2;strokeColor=#B266FF;" parent="1" vertex="1">
          <mxGeometry x="272.75" y="175" width="70" height="20" as="geometry" />
        </mxCell>
        <mxCell id="kyYHTft40qCIeeSrdu0G-93" style="edgeStyle=orthogonalEdgeStyle;rounded=0;orthogonalLoop=1;jettySize=auto;html=1;exitX=0.75;exitY=1;exitDx=0;exitDy=0;entryX=1;entryY=0.25;entryDx=0;entryDy=0;strokeWidth=2;strokeColor=#B266FF;" parent="1" source="kyYHTft40qCIeeSrdu0G-92" target="kyYHTft40qCIeeSrdu0G-36" edge="1">
          <mxGeometry relative="1" as="geometry">
            <Array as="points">
              <mxPoint x="710" y="110" />
              <mxPoint x="770" y="110" />
              <mxPoint x="770" y="643" />
            </Array>
          </mxGeometry>
        </mxCell>
        <mxCell id="kyYHTft40qCIeeSrdu0G-92" value="" style="rounded=1;whiteSpace=wrap;html=1;fillColor=none;strokeWidth=2;strokeColor=#B266FF;" parent="1" vertex="1">
          <mxGeometry x="650" y="75" width="70" height="20" as="geometry" />
        </mxCell>
        <mxCell id="kyYHTft40qCIeeSrdu0G-94" value="" style="rounded=1;whiteSpace=wrap;html=1;" parent="1" vertex="1">
          <mxGeometry x="280" y="240" width="194.25" height="60" as="geometry" />
        </mxCell>
        <mxCell id="kyYHTft40qCIeeSrdu0G-95" value="&lt;u&gt;istante_messaggio&lt;/u&gt;, &lt;u&gt;id_chat&lt;/u&gt;, testo&lt;span style=&quot;caret-color: rgba(0, 0, 0, 0); color: rgba(0, 0, 0, 0); font-family: monospace; font-size: 0px; white-space: nowrap;&quot;&gt;%3CmxGraphModel%3E%3Croot%3E%3CmxCell%20id%3D%220%22%2F%3E%3CmxCell%20id%3D%221%22%20parent%3D%220%22%2F%3E%3CmxCell%20id%3D%222%22%20value%3D%22%26lt%3Bu%26gt%3Bistante_recensione%26lt%3B%2Fu%26gt%3B%2C%26amp%3Bnbsp%3B%26lt%3Bu%26gt%3Bemail_utente%26lt%3B%2Fu%26gt%3B%2C%26amp%3Bnbsp%3B%26lt%3Bu%26gt%3Bcodice_rider%26lt%3B%2Fu%26gt%3B%2C%20voto%2C%20commento%22%20style%3D%22text%3Bhtml%3D1%3Balign%3Dleft%3BverticalAlign%3Dmiddle%3BwhiteSpace%3Dwrap%3Brounded%3D0%3B%22%20vertex%3D%221%22%20parent%3D%221%22%3E%3CmxGeometry%20x%3D%2282.5%22%20y%3D%22350%22%20width%3D%22469%22%20height%3D%2230%22%20as%3D%22geometry%22%2F%3E%3C%2FmxCell%3E%3CmxCell%20id%3D%223%22%20value%3D%22RECENSIONE_%20RIDER%22%20style%3D%22text%3Bhtml%3D1%3Balign%3Dcenter%3BverticalAlign%3Dmiddle%3BwhiteSpace%3Dwrap%3Brounded%3D0%3B%22%20vertex%3D%221%22%20parent%3D%221%22%3E%3CmxGeometry%20x%3D%2281.5%22%20y%3D%22320%22%20width%3D%22138.5%22%20height%3D%2230%22%20as%3D%22geometry%22%2F%3E%3C%2FmxCell%3E%3C%2Froot%3E%3C%2FmxGraphModel%3E&lt;/span&gt;" style="text;html=1;align=left;verticalAlign=middle;whiteSpace=wrap;rounded=0;" parent="1" vertex="1">
          <mxGeometry x="285.25" y="270" width="189" height="30" as="geometry" />
        </mxCell>
        <mxCell id="kyYHTft40qCIeeSrdu0G-96" value="MESSAGGIO" style="text;html=1;align=center;verticalAlign=middle;whiteSpace=wrap;rounded=0;" parent="1" vertex="1">
          <mxGeometry x="284.25" y="240" width="80" height="30" as="geometry" />
        </mxCell>
        <mxCell id="kyYHTft40qCIeeSrdu0G-97" value="" style="rounded=1;whiteSpace=wrap;html=1;fillColor=none;strokeWidth=2;strokeColor=#B266FF;" parent="1" vertex="1">
          <mxGeometry x="389" y="275" width="51" height="20" as="geometry" />
        </mxCell>
        <mxCell id="kyYHTft40qCIeeSrdu0G-98" style="edgeStyle=orthogonalEdgeStyle;rounded=0;orthogonalLoop=1;jettySize=auto;html=1;exitX=0.25;exitY=0;exitDx=0;exitDy=0;entryX=0.864;entryY=0;entryDx=0;entryDy=0;entryPerimeter=0;strokeWidth=2;strokeColor=#B266FF;" parent="1" source="kyYHTft40qCIeeSrdu0G-97" target="kyYHTft40qCIeeSrdu0G-45" edge="1">
          <mxGeometry relative="1" as="geometry" />
        </mxCell>
        <mxCell id="kyYHTft40qCIeeSrdu0G-100" style="edgeStyle=orthogonalEdgeStyle;rounded=0;orthogonalLoop=1;jettySize=auto;html=1;exitX=0.25;exitY=1;exitDx=0;exitDy=0;entryX=0;entryY=0.5;entryDx=0;entryDy=0;strokeWidth=2;strokeColor=#B266FF;" parent="1" source="kyYHTft40qCIeeSrdu0G-99" target="kyYHTft40qCIeeSrdu0G-39" edge="1">
          <mxGeometry relative="1" as="geometry">
            <Array as="points">
              <mxPoint x="166" y="315" />
              <mxPoint x="-30" y="315" />
              <mxPoint x="-30" y="-130" />
            </Array>
          </mxGeometry>
        </mxCell>
        <mxCell id="kyYHTft40qCIeeSrdu0G-99" value="" style="rounded=1;whiteSpace=wrap;html=1;fillColor=none;strokeWidth=2;strokeColor=#B266FF;" parent="1" vertex="1">
          <mxGeometry x="148.13" y="275" width="70" height="20" as="geometry" />
        </mxCell>
        <mxCell id="kyYHTft40qCIeeSrdu0G-102" style="edgeStyle=orthogonalEdgeStyle;rounded=0;orthogonalLoop=1;jettySize=auto;html=1;exitX=0.5;exitY=0;exitDx=0;exitDy=0;entryX=0;entryY=1;entryDx=0;entryDy=0;strokeWidth=2;strokeColor=#B266FF;" parent="1" source="kyYHTft40qCIeeSrdu0G-101" target="kyYHTft40qCIeeSrdu0G-16" edge="1">
          <mxGeometry relative="1" as="geometry">
            <Array as="points">
              <mxPoint x="120" y="230" />
              <mxPoint x="44" y="230" />
            </Array>
          </mxGeometry>
        </mxCell>
        <mxCell id="kyYHTft40qCIeeSrdu0G-101" value="" style="rounded=1;whiteSpace=wrap;html=1;fillColor=none;strokeWidth=2;strokeColor=#B266FF;" parent="1" vertex="1">
          <mxGeometry x="90" y="275" width="60" height="20" as="geometry" />
        </mxCell>
        <mxCell id="kyYHTft40qCIeeSrdu0G-103" value="" style="rounded=1;whiteSpace=wrap;html=1;fillColor=none;strokeWidth=2;strokeColor=#B266FF;" parent="1" vertex="1">
          <mxGeometry x="319.75" y="-25" width="70" height="20" as="geometry" />
        </mxCell>
        <mxCell id="kyYHTft40qCIeeSrdu0G-106" style="edgeStyle=orthogonalEdgeStyle;rounded=0;orthogonalLoop=1;jettySize=auto;html=1;exitX=1;exitY=0;exitDx=0;exitDy=0;entryX=0.938;entryY=1.128;entryDx=0;entryDy=0;entryPerimeter=0;strokeWidth=2;strokeColor=#B266FF;" parent="1" source="kyYHTft40qCIeeSrdu0G-103" target="kyYHTft40qCIeeSrdu0G-5" edge="1">
          <mxGeometry relative="1" as="geometry">
            <Array as="points">
              <mxPoint x="390" y="-40" />
              <mxPoint x="429" y="-40" />
            </Array>
          </mxGeometry>
        </mxCell>
        <mxCell id="kyYHTft40qCIeeSrdu0G-108" style="edgeStyle=orthogonalEdgeStyle;rounded=0;orthogonalLoop=1;jettySize=auto;html=1;exitX=0.25;exitY=1;exitDx=0;exitDy=0;entryX=0.75;entryY=1;entryDx=0;entryDy=0;strokeWidth=2;strokeColor=#B266FF;" parent="1" source="kyYHTft40qCIeeSrdu0G-107" target="kyYHTft40qCIeeSrdu0G-41" edge="1">
          <mxGeometry relative="1" as="geometry" />
        </mxCell>
        <mxCell id="kyYHTft40qCIeeSrdu0G-107" value="" style="rounded=1;whiteSpace=wrap;html=1;fillColor=none;strokeWidth=2;strokeColor=#B266FF;" parent="1" vertex="1">
          <mxGeometry x="395.25" y="-25" width="84.75" height="20" as="geometry" />
        </mxCell>
        <mxCell id="kyYHTft40qCIeeSrdu0G-109" value="" style="rounded=1;whiteSpace=wrap;html=1;fillColor=none;strokeWidth=2;strokeColor=#B266FF;" parent="1" vertex="1">
          <mxGeometry x="292.69" y="375" width="96.31" height="20" as="geometry" />
        </mxCell>
        <mxCell id="kyYHTft40qCIeeSrdu0G-113" style="edgeStyle=orthogonalEdgeStyle;rounded=0;orthogonalLoop=1;jettySize=auto;html=1;exitX=0.75;exitY=0;exitDx=0;exitDy=0;entryX=1;entryY=1;entryDx=0;entryDy=0;strokeWidth=2;strokeColor=#B266FF;" parent="1" source="kyYHTft40qCIeeSrdu0G-112" target="kyYHTft40qCIeeSrdu0G-47" edge="1">
          <mxGeometry relative="1" as="geometry">
            <Array as="points">
              <mxPoint x="546" y="420" />
              <mxPoint x="466" y="420" />
            </Array>
          </mxGeometry>
        </mxCell>
        <mxCell id="kyYHTft40qCIeeSrdu0G-112" value="" style="rounded=1;whiteSpace=wrap;html=1;fillColor=none;strokeWidth=2;strokeColor=#B266FF;" parent="1" vertex="1">
          <mxGeometry x="474.25" y="465" width="85.75" height="20" as="geometry" />
        </mxCell>
        <mxCell id="kyYHTft40qCIeeSrdu0G-115" style="edgeStyle=orthogonalEdgeStyle;rounded=0;orthogonalLoop=1;jettySize=auto;html=1;exitX=0.75;exitY=1;exitDx=0;exitDy=0;entryX=1;entryY=1;entryDx=0;entryDy=0;strokeWidth=2;strokeColor=#B266FF;" parent="1" source="kyYHTft40qCIeeSrdu0G-114" target="kyYHTft40qCIeeSrdu0G-50" edge="1">
          <mxGeometry relative="1" as="geometry" />
        </mxCell>
        <mxCell id="kyYHTft40qCIeeSrdu0G-114" value="" style="rounded=1;whiteSpace=wrap;html=1;fillColor=none;strokeWidth=2;strokeColor=#B266FF;" parent="1" vertex="1">
          <mxGeometry x="570" y="465" width="60" height="20" as="geometry" />
        </mxCell>
        <mxCell id="kyYHTft40qCIeeSrdu0G-117" style="edgeStyle=orthogonalEdgeStyle;rounded=0;orthogonalLoop=1;jettySize=auto;html=1;exitX=1;exitY=0;exitDx=0;exitDy=0;entryX=0;entryY=0.5;entryDx=0;entryDy=0;strokeWidth=2;strokeColor=#B266FF;" parent="1" source="kyYHTft40qCIeeSrdu0G-116" target="kyYHTft40qCIeeSrdu0G-49" edge="1">
          <mxGeometry relative="1" as="geometry">
            <Array as="points">
              <mxPoint x="140" y="420" />
              <mxPoint x="190" y="420" />
              <mxPoint x="190" y="370" />
            </Array>
          </mxGeometry>
        </mxCell>
        <mxCell id="kyYHTft40qCIeeSrdu0G-116" value="" style="rounded=1;whiteSpace=wrap;html=1;fillColor=none;strokeWidth=2;strokeColor=#B266FF;" parent="1" vertex="1">
          <mxGeometry x="73.38" y="465" width="66.62" height="20" as="geometry" />
        </mxCell>
        <mxCell id="kyYHTft40qCIeeSrdu0G-120" style="edgeStyle=orthogonalEdgeStyle;rounded=0;orthogonalLoop=1;jettySize=auto;html=1;exitX=0.25;exitY=1;exitDx=0;exitDy=0;entryX=0.25;entryY=0;entryDx=0;entryDy=0;strokeWidth=2;strokeColor=#B266FF;" parent="1" source="kyYHTft40qCIeeSrdu0G-118" target="kyYHTft40qCIeeSrdu0G-23" edge="1">
          <mxGeometry relative="1" as="geometry" />
        </mxCell>
        <mxCell id="kyYHTft40qCIeeSrdu0G-118" value="" style="rounded=1;whiteSpace=wrap;html=1;fillColor=none;strokeWidth=2;strokeColor=#B266FF;" parent="1" vertex="1">
          <mxGeometry x="41.629999999999995" y="375" width="70" height="20" as="geometry" />
        </mxCell>
        <mxCell id="kyYHTft40qCIeeSrdu0G-121" value="" style="rounded=1;whiteSpace=wrap;html=1;fillColor=none;strokeWidth=2;strokeColor=#B266FF;" parent="1" vertex="1">
          <mxGeometry x="111.63" y="375" width="58.37" height="20" as="geometry" />
        </mxCell>
        <mxCell id="kyYHTft40qCIeeSrdu0G-122" style="edgeStyle=orthogonalEdgeStyle;rounded=0;orthogonalLoop=1;jettySize=auto;html=1;exitX=0.75;exitY=0;exitDx=0;exitDy=0;entryX=0.325;entryY=1.044;entryDx=0;entryDy=0;entryPerimeter=0;strokeWidth=2;strokeColor=#B266FF;" parent="1" source="kyYHTft40qCIeeSrdu0G-121" target="kyYHTft40qCIeeSrdu0G-16" edge="1">
          <mxGeometry relative="1" as="geometry">
            <Array as="points">
              <mxPoint x="155" y="330" />
              <mxPoint x="271" y="330" />
            </Array>
          </mxGeometry>
        </mxCell>
        <mxCell id="kyYHTft40qCIeeSrdu0G-123" value="" style="rounded=1;whiteSpace=wrap;html=1;" parent="1" vertex="1">
          <mxGeometry x="510.38" y="240" width="144.62" height="60" as="geometry" />
        </mxCell>
        <mxCell id="kyYHTft40qCIeeSrdu0G-124" value="id_lista, titolo_piatto" style="text;html=1;align=left;verticalAlign=middle;whiteSpace=wrap;rounded=0;" parent="1" vertex="1">
          <mxGeometry x="514.88" y="270" width="140.12" height="30" as="geometry" />
        </mxCell>
        <mxCell id="kyYHTft40qCIeeSrdu0G-125" value="SALVA" style="text;html=1;align=center;verticalAlign=middle;whiteSpace=wrap;rounded=0;" parent="1" vertex="1">
          <mxGeometry x="512.88" y="245" width="52.12" height="30" as="geometry" />
        </mxCell>
        <mxCell id="kyYHTft40qCIeeSrdu0G-127" style="edgeStyle=orthogonalEdgeStyle;rounded=0;orthogonalLoop=1;jettySize=auto;html=1;exitX=0;exitY=0.75;exitDx=0;exitDy=0;entryX=0.75;entryY=0;entryDx=0;entryDy=0;strokeWidth=2;strokeColor=#B266FF;" parent="1" source="kyYHTft40qCIeeSrdu0G-126" target="kyYHTft40qCIeeSrdu0G-49" edge="1">
          <mxGeometry relative="1" as="geometry">
            <Array as="points">
              <mxPoint x="515" y="310" />
              <mxPoint x="346" y="310" />
            </Array>
          </mxGeometry>
        </mxCell>
        <mxCell id="kyYHTft40qCIeeSrdu0G-126" value="" style="rounded=1;whiteSpace=wrap;html=1;fillColor=none;strokeWidth=2;strokeColor=#B266FF;" parent="1" vertex="1">
          <mxGeometry x="514.88" y="275" width="45.12" height="20" as="geometry" />
        </mxCell>
        <mxCell id="kyYHTft40qCIeeSrdu0G-129" style="edgeStyle=orthogonalEdgeStyle;rounded=0;orthogonalLoop=1;jettySize=auto;html=1;exitX=0.25;exitY=1;exitDx=0;exitDy=0;entryX=1;entryY=0;entryDx=0;entryDy=0;strokeWidth=2;strokeColor=#B266FF;" parent="1" source="kyYHTft40qCIeeSrdu0G-128" target="kyYHTft40qCIeeSrdu0G-50" edge="1">
          <mxGeometry relative="1" as="geometry">
            <Array as="points">
              <mxPoint x="596" y="320" />
              <mxPoint x="410" y="320" />
              <mxPoint x="410" y="410" />
              <mxPoint x="298" y="410" />
            </Array>
          </mxGeometry>
        </mxCell>
        <mxCell id="kyYHTft40qCIeeSrdu0G-128" value="" style="rounded=1;whiteSpace=wrap;html=1;fillColor=none;strokeWidth=2;strokeColor=#B266FF;" parent="1" vertex="1">
          <mxGeometry x="558" y="275" width="72" height="20" as="geometry" />
        </mxCell>
        <mxCell id="kyYHTft40qCIeeSrdu0G-132" style="edgeStyle=orthogonalEdgeStyle;rounded=0;orthogonalLoop=1;jettySize=auto;html=1;exitX=0.75;exitY=0;exitDx=0;exitDy=0;entryX=0;entryY=0;entryDx=0;entryDy=0;strokeWidth=2;strokeColor=#B266FF;" parent="1" source="kyYHTft40qCIeeSrdu0G-130" target="kyYHTft40qCIeeSrdu0G-25" edge="1">
          <mxGeometry relative="1" as="geometry" />
        </mxCell>
        <mxCell id="kyYHTft40qCIeeSrdu0G-130" value="" style="rounded=1;whiteSpace=wrap;html=1;fillColor=none;strokeWidth=2;strokeColor=#B266FF;" parent="1" vertex="1">
          <mxGeometry x="40.51" y="555" width="104.99" height="20" as="geometry" />
        </mxCell>
        <mxCell id="kyYHTft40qCIeeSrdu0G-133" style="edgeStyle=orthogonalEdgeStyle;rounded=0;orthogonalLoop=1;jettySize=auto;html=1;exitX=0.75;exitY=1;exitDx=0;exitDy=0;entryX=0.566;entryY=-0.033;entryDx=0;entryDy=0;entryPerimeter=0;strokeWidth=2;strokeColor=#B266FF;" parent="1" source="kyYHTft40qCIeeSrdu0G-109" target="kyYHTft40qCIeeSrdu0G-51" edge="1">
          <mxGeometry relative="1" as="geometry">
            <Array as="points">
              <mxPoint x="365" y="420" />
              <mxPoint x="323" y="420" />
              <mxPoint x="323" y="495" />
              <mxPoint x="361" y="495" />
            </Array>
          </mxGeometry>
        </mxCell>
        <mxCell id="kyYHTft40qCIeeSrdu0G-136" style="edgeStyle=orthogonalEdgeStyle;rounded=0;orthogonalLoop=1;jettySize=auto;html=1;exitX=0.25;exitY=0;exitDx=0;exitDy=0;entryX=0;entryY=1;entryDx=0;entryDy=0;strokeWidth=2;strokeColor=#B266FF;" parent="1" source="kyYHTft40qCIeeSrdu0G-135" target="kyYHTft40qCIeeSrdu0G-22" edge="1">
          <mxGeometry relative="1" as="geometry">
            <Array as="points">
              <mxPoint x="166" y="510" />
              <mxPoint x="45" y="510" />
            </Array>
          </mxGeometry>
        </mxCell>
        <mxCell id="kyYHTft40qCIeeSrdu0G-135" value="" style="rounded=1;whiteSpace=wrap;html=1;fillColor=none;strokeWidth=2;strokeColor=#B266FF;" parent="1" vertex="1">
          <mxGeometry x="147.45" y="555" width="72.55" height="20" as="geometry" />
        </mxCell>
        <mxCell id="kyYHTft40qCIeeSrdu0G-139" style="edgeStyle=orthogonalEdgeStyle;rounded=0;orthogonalLoop=1;jettySize=auto;html=1;exitX=0;exitY=0;exitDx=0;exitDy=0;entryX=0.5;entryY=1;entryDx=0;entryDy=0;strokeWidth=2;strokeColor=#B266FF;" parent="1" source="kyYHTft40qCIeeSrdu0G-138" target="kyYHTft40qCIeeSrdu0G-52" edge="1">
          <mxGeometry relative="1" as="geometry">
            <Array as="points">
              <mxPoint x="383" y="550" />
            </Array>
          </mxGeometry>
        </mxCell>
        <mxCell id="kyYHTft40qCIeeSrdu0G-138" value="" style="rounded=1;whiteSpace=wrap;html=1;fillColor=none;strokeWidth=2;strokeColor=#B266FF;" parent="1" vertex="1">
          <mxGeometry x="409.12" y="550" width="96.25" height="20" as="geometry" />
        </mxCell>
        <mxCell id="kyYHTft40qCIeeSrdu0G-141" style="edgeStyle=orthogonalEdgeStyle;rounded=0;orthogonalLoop=1;jettySize=auto;html=1;exitX=1;exitY=0.25;exitDx=0;exitDy=0;entryX=1;entryY=0.25;entryDx=0;entryDy=0;strokeWidth=2;strokeColor=#B266FF;" parent="1" source="kyYHTft40qCIeeSrdu0G-140" target="kyYHTft40qCIeeSrdu0G-51" edge="1">
          <mxGeometry relative="1" as="geometry">
            <Array as="points">
              <mxPoint x="640" y="555" />
              <mxPoint x="640" y="610" />
            </Array>
          </mxGeometry>
        </mxCell>
        <mxCell id="kyYHTft40qCIeeSrdu0G-140" value="" style="rounded=1;whiteSpace=wrap;html=1;fillColor=none;strokeWidth=2;strokeColor=#B266FF;" parent="1" vertex="1">
          <mxGeometry x="505.37" y="550" width="94.63" height="20" as="geometry" />
        </mxCell>
      </root>
    </mxGraphModel>
  </diagram>
</mxfile>
